Coordinates
version=1
nRows=29
nColumns=24
inDegrees=yes

Units are S.I. units (second, meters, Newtons, ...)
Angles are in degrees.

endheader
time	pelvis_tilt	pelvis_list	pelvis_rotation	pelvis_tx	pelvis_ty	pelvis_tz	hip_flexion_r	hip_adduction_r	hip_rotation_r	knee_angle_r	ankle_angle_r	subtalar_angle_r	mtp_angle_r	hip_flexion_l	hip_adduction_l	hip_rotation_l	knee_angle_l	ankle_angle_l	subtalar_angle_l	mtp_angle_l	lumbar_extension	lumbar_bending	lumbar_rotation
      0.92516667	      3.37508764	      2.15768830	     -5.04747562	     -0.12698528	      0.90722465	      0.33694232	    -20.86604875	      0.24801232	     -1.84301654	     -8.02675217	     16.90677465	     10.86813909	      7.28450748	     21.17482845	      1.84676083	     -8.00427230	    -13.24749961	      4.44050965	     -5.29170588	      3.12783355	    -12.31899405	     -2.81639146	      9.16930666
      0.92933333	      3.30976552	      2.17269417	     -5.16730341	     -0.12117382	      0.90595200	      0.33680272	    -20.87889193	      0.12037271	     -1.77124277	     -8.67747287	     17.09344151	     11.04343514	      7.83705626	     21.19340220	      1.87897661	     -7.78120294	    -13.18368151	      4.52520762	     -5.33758142	      3.05158280	    -12.19273457	     -2.89477364	      9.22659038
      0.93350000	      3.30495907	      2.19567019	     -5.26873035	     -0.11532605	      0.90478949	      0.33668914	    -20.98505105	     -0.00060394	     -1.61870315	     -9.27601955	     17.19539128	     11.00310955	      7.96626879	     21.15485029	      1.92400489	     -7.59193891	    -13.24319927	      4.66334524	     -5.33281358	      3.04164184	    -12.14362832	     -3.01668695	      9.22750481
      0.93766667	      3.20953049	      2.22533742	     -5.38163842	     -0.10951399	      0.90353740	      0.33653842	    -20.90830531	     -0.13980544	     -1.51481148	    -10.03944206	     17.36182091	     11.18318305	      8.24571852	     21.22157402	      1.97156204	     -7.39736985	    -13.39763678	      4.68611240	     -5.41142101	      3.02203604	    -12.00104991	     -3.13015849	      9.28361212
      0.94183333	      3.18033390	      2.27080543	     -5.46428580	     -0.10363714	      0.90242346	      0.33630675	    -20.89064886	     -0.30067055	     -1.53747550	    -10.82011837	     17.30526737	     11.33499591	     12.78258604	     21.18821814	      2.06854282	     -7.15902884	    -13.57485655	      4.67227118	     -5.58235722	      2.79764849	    -11.91244567	     -3.23604159	      9.28257352
      0.94600000	      3.12590917	      2.31334041	     -5.56906966	     -0.09776485	      0.90131094	      0.33613842	    -20.82104161	     -0.45400133	     -1.42747658	    -11.65835838	     17.37926859	     11.41954220	     12.82537174	     21.20820347	      2.13530313	     -7.05469871	    -13.89300531	      4.67585066	     -5.62698908	      2.80421334	    -11.80278693	     -3.36949374	      9.29397189
      0.95016667	      3.06187485	      2.36383925	     -5.65443984	     -0.09189075	      0.90022515	      0.33590887	    -20.69343632	     -0.61847119	     -1.39620386	    -12.59179895	     17.41407267	     11.58820910	     12.91423600	     21.23687407	      2.22532261	     -6.92619783	    -14.26812728	      4.62459150	     -5.74894967	      2.81806519	    -11.67481323	     -3.49836335	      9.28927717
      0.95433333	      3.00831529	      2.42411260	     -5.73005547	     -0.08599789	      0.89919950	      0.33564499	    -20.54688667	     -0.79477595	     -1.38550684	    -13.58484427	     17.40640412	     11.76905545	     13.04805322	     21.25195879	      2.33498469	     -6.81395712	    -14.69609622	      4.53589616	     -5.91055926	      2.83998433	    -11.55505066	     -3.63544886	      9.26004437
      0.95850000	      2.96953803	      2.49008075	     -5.76432056	     -0.08009500	      0.89823151	      0.33528468	    -20.38402519	     -0.97869831	     -1.49204164	    -14.64175129	     17.33977615	     12.07816622	     13.41499812	     21.25273808	      2.47682004	     -6.65195025	    -15.17157518	      4.39930352	     -6.14481804	      2.90449098	    -11.46530350	     -3.76036785	      9.22102992
      0.96266667	      2.92275547	      2.56715809	     -5.84511623	     -0.07418887	      0.89733106	      0.33503216	    -20.18306057	     -1.17198028	     -1.41334990	    -15.74176464	     17.22854268	     12.13664905	     13.61641721	     21.25618857	      2.60246468	     -6.62055279	    -15.68663976	      4.27214450	     -6.30495066	      2.93964800	    -11.35310480	     -3.94468951	      9.13050788
      0.96683333	      2.89342044	      2.64162845	     -5.86430379	     -0.06828283	      0.89649866	      0.33462125	    -19.96847224	     -1.36529500	     -1.50124444	    -16.89656215	     16.95205511	     12.31754364	     17.69578293	     21.23480331	      2.77115543	     -6.45936601	    -16.20979861	      4.06540047	     -6.69725069	      3.69403306	    -11.26942251	     -4.07052606	      9.03531777
      0.97100000	      2.85332878	      2.71877280	     -5.89722528	     -0.06239235	      0.89569549	      0.33425114	    -19.68801919	     -1.56376930	     -1.55543748	    -18.15843794	     16.74628932	     12.49391903	     17.77284863	     21.25655718	      2.91046108	     -6.46447809	    -16.84063356	      3.96713679	     -6.76466860	      3.71519691	    -11.17407719	     -4.22762065	      8.92941034
      0.97516667	      2.81336654	      2.81026085	     -5.92285505	     -0.05649021	      0.89496313	      0.33386909	    -19.38274875	     -1.77560195	     -1.58866378	    -19.45381025	     16.43554877	     12.64473465	     17.87832322	     21.27147119	      3.07287168	     -6.46024998	    -17.47918800	      3.85863853	     -6.95784539	      3.73743385	    -11.07243768	     -4.42540786	      8.79957868
      0.97933333	      2.76974640	      2.89680471	     -5.92277581	     -0.05063611	      0.89427771	      0.33341833	    -19.01695625	     -1.98545872	     -1.68283776	    -20.85026731	     16.10463030	     12.85731238	     18.05474680	     21.29100056	      3.24470657	     -6.41128799	    -18.12871615	      3.74593091	     -7.17424144	      3.77056688	    -10.98290460	     -4.58192588	      8.65116792
      0.98350000	      2.74095850	      2.98634987	     -5.90846355	     -0.04480258	      0.89367631	      0.33290835	    -18.62174371	     -2.20759195	     -1.81277175	    -22.32090830	     15.72598250	     13.07429453	     18.33151785	     21.29091022	      3.42915945	     -6.36003978	    -18.78149112	      3.64445090	     -7.40080019	      3.81859148	    -10.90759532	     -4.71841417	      8.48151360
      0.98766667	      2.71613793	      3.08593875	     -5.88423533	     -0.03898492	      0.89313857	      0.33239070	    -18.19302363	     -2.44242368	     -1.94883556	    -23.84554086	     15.26818165	     13.28592683	     18.74405357	     21.29200546	      3.62414148	     -6.32415425	    -19.45836650	      3.58435291	     -7.63507287	      3.88560226	    -10.84091543	     -4.88400386	      8.29518099
      0.99183333	      2.69351826	      3.19171321	     -5.86221561	     -0.03317805	      0.89268604	      0.33189436	    -17.72966654	     -2.68493795	     -2.06328278	    -25.41521372	     14.69010368	     13.43918486	     19.12061905	     21.27615188	      3.82030866	     -6.31002445	    -20.11505480	      3.58275487	     -7.80968873	      3.94446585	    -10.77692657	     -5.06798201	      8.10567876
      0.99600000	      2.70783506	      3.30696277	     -5.81773115	     -0.02738330	      0.89235474	      0.33135221	    -17.28154691	     -2.94479287	     -2.21654534	    -26.99620084	     13.92828964	     13.51482184	     24.56223716	     21.20997770	      4.04527658	     -6.24996637	    -20.75620361	      3.60797242	     -8.07914995	      4.71366638	    -10.76542213	     -5.28302213	      7.91862428
      1.00016667	      2.71446774	      3.41993437	     -5.78455479	     -0.02162518	      0.89208529	      0.33084432	    -16.77426209	     -3.20586333	     -2.33635682	    -28.65697352	     13.17829421	     13.65896221	     24.59323363	     21.14979101	      4.24710596	     -6.25608381	    -21.40542668	      3.72104693	     -8.14135674	      4.72662675	    -10.74913944	     -5.49270407	      7.73331794
      1.00433333	      2.70996243	      3.53467541	     -5.72974902	     -0.01593434	      0.89182440	      0.33025830	    -16.19528202	     -3.48299950	     -2.52417693	    -30.41721266	     12.47041498	     13.82181606	     24.68439886	     21.10546894	      4.46036451	     -6.23997253	    -22.05443788	      3.84699388	     -8.27683424	      4.74337716	    -10.71867212	     -5.65228533	      7.50611117
      1.00850000	      2.72517515	      3.66285768	     -5.67391675	     -0.01026605	      0.89166965	      0.32969162	    -15.60615449	     -3.77804269	     -2.69922413	    -32.20164097	     11.64206152	     13.94073963	     24.80851396	     21.01472034	      4.69096196	     -6.20581232	    -22.65569194	      4.02548074	     -8.39336841	      4.76152701	    -10.71897199	     -5.85980766	      7.27996896
      1.01266667	      2.77076640	      3.80012031	     -5.62136406	     -0.00461030	      0.89164248	      0.32914674	    -15.02444230	     -4.08785068	     -2.85724657	    -33.99481297	     10.69802103	     14.00515539	     24.90041161	     20.85708984	      4.93477551	     -6.15382951	    -23.19248146	      4.26690868	     -8.45483792	      4.77645549	    -10.76117380	     -6.09007358	      7.08582889
      1.01683333	      2.79651066	      3.94247360	     -5.55309979	      0.00097133	      0.89159997	      0.32854381	    -14.36518558	     -4.42076284	     -3.07903222	    -35.87201154	      9.79705139	     14.09297564	     25.04116994	     20.73063288	      5.18133101	     -6.12818398	    -23.73959232	      4.49922783	     -8.54806136	      4.79161962	    -10.77735021	     -6.29747258	      6.83682322
      1.02100000	      2.85197398	      4.09722804	     -5.48965267	      0.00652300	      0.89166996	      0.32795848	    -13.71336529	     -4.77311777	     -3.28019156	    -37.75128882	      8.79317165	     14.12539883	     25.18901556	     20.53718726	      5.44655883	     -6.07853835	    -24.21562799	      4.78485506	     -8.61215944	      4.80641857	    -10.83766538	     -6.53323921	      6.60026865
      1.02516667	      2.92224342	      4.25701511	     -5.42392922	      0.01204020	      0.89182477	      0.32738637	    -13.04959108	     -5.13677498	     -3.48695395	    -39.64426155	      7.73398035	     14.10169857	     25.29888574	     20.30007170	      5.71618976	     -6.02871065	    -24.63320670	      5.08940241	     -8.63972529	      4.81880432	    -10.92090646	     -6.77763634	      6.37844120
      1.02933333	      3.02896011	      4.41870456	     -5.36216162	      0.01753190	      0.89209619	      0.32681704	    -12.40675862	     -5.51312617	     -3.69448834	    -41.52769389	      6.60814102	     14.01894417	     25.34262560	     19.98482584	      5.99358914	     -5.96748892	    -24.97316010	      5.45312731	     -8.62867744	      4.83024250	    -11.04341939	     -7.01869464	      6.19167876
      1.03350000	      3.12742077	      4.59358041	     -5.29700287	      0.02296479	      0.89238358	      0.32623772	    -11.72018579	     -5.91202498	     -3.91309531	    -43.43579246	      5.48408984	     13.90945101	     25.35930626	     19.66951434	      6.28080632	     -5.92101036	    -25.28619808	      5.80450447	     -8.61516395	      4.84028575	    -11.16092131	     -7.27156428	      5.98270880
      1.03766667	      3.23195316	      4.77565532	     -5.23161203	      0.02834371	      0.89272457	      0.32566109	    -11.01407136	     -6.32639784	     -4.13868023	    -45.34689280	      4.35198379	     13.75578676	     25.34646109	     19.32306197	      6.57586815	     -5.87286457	    -25.54140752	      6.15590915	     -8.58931655	      4.84967257	    -11.29452818	     -7.53015754	      5.76441105
      1.04183333	      3.34317362	      4.96285655	     -5.16799632	      0.03367774	      0.89312036	      0.32509022	    -10.29444667	     -6.75210819	     -4.36234946	    -47.24885189	      3.21622591	     13.54886551	     25.30045139	     18.94262171	      6.87588552	     -5.82346617	    -25.73649461	      6.50523591	     -8.55414404	      4.85858587	    -11.43441878	     -7.79482567	      5.54106203
